<svg id="footer_footer_logo.svg" data-name="footer/footer_logo.svg" xmlns="http://www.w3.org/2000/svg" width="157.78" height="33.66" viewBox="0 0 157.78 33.66">
  <defs>
    <style>
      .cls-1 {
        fill: #0079f2;
        fill-rule: evenodd;
      }
    </style>
  </defs>
  <path id="キッズオンライン英会話" class="cls-1" d="M1607.22,8153.15c0.04,0.17.12,0.6,0.24,1.2-1.09.17-2.08,0.31-2.53,0.36-0.37.04-.7,0.06-1.04,0.08l0.25,1.32c0.39-.09.67-0.15,1.03-0.21,0.42-.07,1.42-0.24,2.52-0.42,0.13,0.69.28,1.46,0.42,2.2-1.29.21-2.52,0.4-3.1,0.48-0.34.05-.84,0.11-1.14,0.12l0.27,1.29c0.27-.07.63-0.15,1.12-0.23,0.56-.11,1.77-0.31,3.08-0.53,0.2,1.12.38,2.02,0.43,2.32,0.07,0.36.11,0.74,0.17,1.17l1.38-.25c-0.12-.36-0.23-0.78-0.31-1.13-0.08-.32-0.24-1.22-0.46-2.3,1.12-.18,2.17-0.35,2.8-0.44,0.45-.08.88-0.16,1.16-0.18l-0.25-1.26c-0.28.08-.67,0.17-1.13,0.26-0.58.11-1.64,0.29-2.81,0.48-0.14-.74-0.28-1.51-0.42-2.19,1.08-.17,2.09-0.33,2.62-0.41,0.33-.05.74-0.11,0.96-0.13l-0.23-1.26c-0.24.07-.61,0.15-0.98,0.22-0.47.1-1.49,0.27-2.58,0.45-0.12-.62-0.21-1.08-0.23-1.23-0.06-.26-0.1-0.63-0.13-0.86l-1.35.22A5.9,5.9,0,0,1,1607.22,8153.15Zm13.36,1.51-1.13.37a21.1,21.1,0,0,1,.96,2.64l1.13-.41C1621.38,8156.74,1620.8,8155.17,1620.58,8154.66Zm4.38,0.77-1.32-.42a8.318,8.318,0,0,1-1.6,4.1,8.1,8.1,0,0,1-3.93,2.53l0.99,1.02a9.246,9.246,0,0,0,3.95-2.9,9.584,9.584,0,0,0,1.68-3.62C1624.78,8155.95,1624.85,8155.73,1624.96,8155.43Zm-7.18-.14-1.12.4a24.435,24.435,0,0,1,1.09,2.74l1.14-.42C1618.66,8157.35,1618.06,8155.84,1617.78,8155.29Zm18.03-3.48-0.78.32a15.272,15.272,0,0,1,.86,1.49l-0.47-.36a3.681,3.681,0,0,1-1.04.12h-4.45c-0.37,0-1.07-.04-1.31-0.07v1.35c0.19-.01.84-0.07,1.31-0.07h4.4a9.9,9.9,0,0,1-1.91,3.17,13.3,13.3,0,0,1-4.93,3.5l0.98,1.02a15.932,15.932,0,0,0,4.61-3.44,26.97,26.97,0,0,1,3.18,3.49l1.06-.93a32.61,32.61,0,0,0-3.43-3.51,16.726,16.726,0,0,0,1.96-3.42,4.146,4.146,0,0,1,.35-0.62l-0.12-.1,0.68-.3A15.385,15.385,0,0,0,1635.81,8151.81Zm1.42-.42-0.76.32a15.027,15.027,0,0,1,.97,1.66l0.78-.35A16.906,16.906,0,0,0,1637.23,8151.39Zm9.47,0.79h-1.37a8.054,8.054,0,0,1,.11,1.09c0.01,0.29.03,0.65,0.04,1.04h-4.19a9.18,9.18,0,0,1-1.2-.08v1.27q0.6-.03,1.23-0.03h3.66a14.741,14.741,0,0,1-5.41,4.41l0.86,0.98a16.643,16.643,0,0,0,5.1-4.29c0.02,1.46.03,2.96,0.03,3.86a0.4,0.4,0,0,1-.44.48,12.81,12.81,0,0,1-1.64-.13l0.09,1.23c0.64,0.04,1.33.08,1.99,0.08a1.027,1.027,0,0,0,1.21-1.08c-0.01-1.55-.06-3.77-0.09-5.54h1.75c0.3,0,.73.01,1.05,0.02v-1.26a8.739,8.739,0,0,1-1.11.08h-1.72c0-.4-0.01-0.75-0.01-1.04A6.642,6.642,0,0,1,1646.7,8152.18Zm6.76,0.55-0.87.94a25.815,25.815,0,0,1,2.99,2.54l0.95-.97A24.307,24.307,0,0,0,1653.46,8152.73Zm-1.23,8.02,0.8,1.24a13.143,13.143,0,0,0,4.59-1.79,12.22,12.22,0,0,0,4.21-4.34l-0.73-1.31a11.413,11.413,0,0,1-4.16,4.53A12.593,12.593,0,0,1,1652.23,8160.75Zm13.17-8.13v1.24c0.34-.03.77-0.04,1.15-0.04h4.66c0.4,0,.88.01,1.18,0.04v-1.24a10.37,10.37,0,0,1-1.17.06h-4.67A10,10,0,0,1,1665.4,8152.62Zm7.94,3.3-0.85-.53a2.376,2.376,0,0,1-.77.11h-6.14a12.684,12.684,0,0,1-1.27-.08v1.24c0.46-.03.98-0.04,1.27-0.04h6.11a5.679,5.679,0,0,1-1.34,2.4,8.023,8.023,0,0,1-4.19,2.15l0.93,1.08a8.835,8.835,0,0,0,4.3-2.55,8.638,8.638,0,0,0,1.76-3.36A1.9,1.9,0,0,1,1673.34,8155.92Zm2.24,1.27,0.59,1.19a24.879,24.879,0,0,0,4.42-1.86v4.17a12.82,12.82,0,0,1-.07,1.42h1.49a8.866,8.866,0,0,1-.09-1.42v-4.97a20.309,20.309,0,0,0,3.23-2.63l-1.01-.96a14.936,14.936,0,0,1-3.33,2.86A19.911,19.911,0,0,1,1675.58,8157.19Zm13.88-4.46-0.87.94a25.815,25.815,0,0,1,2.99,2.54l0.95-.97A24.307,24.307,0,0,0,1689.46,8152.73Zm-1.23,8.02,0.8,1.24a13.143,13.143,0,0,0,4.59-1.79,12.22,12.22,0,0,0,4.21-4.34l-0.73-1.31a11.413,11.413,0,0,1-4.16,4.53A12.593,12.593,0,0,1,1688.23,8160.75Zm13.71-5.96h1.1v-1.16h3.18v1.16h1.12v-1.16h2.46v-0.99h-2.46v-1.02h-1.12v1.02h-3.18v-1.02h-1.1v1.02h-2.45v0.99h2.45v1.16Zm-0.31,3.46v-1.79h2.4v1.1a5.322,5.322,0,0,1-.04.69h-2.36Zm6.09-1.79v1.79h-2.56c0.02-.23.03-0.45,0.03-0.67v-1.12h2.53Zm2.24,2.82v-1.03h-1.11v-2.76h-3.66v-1.3h-1.16v1.3h-3.47v2.76h-1.2v1.03h4.31c-0.53.97-1.74,1.83-4.55,2.42a4.765,4.765,0,0,1,.7.94c2.9-.69,4.29-1.7,4.92-2.89a6.424,6.424,0,0,0,4.83,2.89,4.129,4.129,0,0,1,.69-1.03c-2.21-.28-3.76-1.02-4.64-2.33h4.34Zm4.11-4.04a11.652,11.652,0,0,0,2.56-2.55,11.863,11.863,0,0,0,2.7,2.55h-5.26Zm-0.23,1.03h5.62v-0.94a13.346,13.346,0,0,0,2.12,1.25,5.411,5.411,0,0,1,.71-1.01,12.038,12.038,0,0,1-5.13-3.95H1716a12.093,12.093,0,0,1-4.9,4.12,4.1,4.1,0,0,1,.66.91,15.022,15.022,0,0,0,2.08-1.24v0.86Zm-2.06,2.29h2.98a20.864,20.864,0,0,1-1.12,2.51l-1.77.06,0.14,1.09c2.04-.09,5.09-0.22,7.94-0.36a7.241,7.241,0,0,1,.53.78l1.02-.64a15.146,15.146,0,0,0-2.79-3.08l-0.96.52a18.834,18.834,0,0,1,1.4,1.42c-1.47.06-2.95,0.12-4.29,0.17,0.44-.77.88-1.67,1.28-2.47h5.49v-1.04h-9.85v1.04Zm15.43-6.56h-3.43v0.88h3.43V8152Zm-0.9,7.47v1.73h-1.66v-1.73h1.66Zm0.96-.9h-3.58v4.03h0.96v-0.51h2.62v-3.52Zm-3.56-.79h3.51v-0.86h-3.51v0.86Zm3.51-2.49h-3.51v0.86h3.51v-0.86Zm-4.07-.78h4.47v-0.89h-4.47v0.89Zm9.44,6.51h-3.16v-2.09h3.16v2.09Zm1.64-4.92v-1.05h-2.7v-1.86a21.034,21.034,0,0,0,2.3-.51l-0.78-.91a26.852,26.852,0,0,1-5.11.85,3.356,3.356,0,0,1,.33.95c0.68-.05,1.4-0.13,2.12-0.22v1.7h-2.69v1.05h2.69v1.82h-2.03v4.69h1.07v-0.58h3.16v0.52h1.1v-4.63h-2.16v-1.82h2.7Z" transform="translate(-1589.69 -8129)"/>
  <path id="Kira-Kira_English" data-name="Kira-Kira English" class="cls-1" d="M1601.45,8143.67l-4.9-6.54,4.66-6.15h-4.07l-3.94,5.47v-5.47h-3.53v12.69h3.53v-5.57l3.98,5.57h4.27Zm3.07-11.04a2.139,2.139,0,0,0,1.49-.51,1.656,1.656,0,0,0,.57-1.29,1.7,1.7,0,0,0-.57-1.31,2.1,2.1,0,0,0-1.49-.52,2.124,2.124,0,0,0-1.5.52,1.7,1.7,0,0,0-.57,1.31,1.656,1.656,0,0,0,.57,1.29,2.165,2.165,0,0,0,1.5.51h0Zm-1.78.94v10.1h3.53v-10.1h-3.53Zm9.07,1.78v-1.78h-3.52v10.1h3.52v-4.41a1.917,1.917,0,0,1,.56-1.57,2.689,2.689,0,0,1,1.71-.45h0.99v-3.76a3.562,3.562,0,0,0-1.82.5,4.686,4.686,0,0,0-1.44,1.37h0Zm3.95,3.26a6.352,6.352,0,0,0,.56,2.74,4.326,4.326,0,0,0,1.55,1.81,3.972,3.972,0,0,0,2.19.63,3.782,3.782,0,0,0,1.79-.41,3.034,3.034,0,0,0,1.18-1.12v1.41h3.53v-10.1h-3.53v1.4a2.979,2.979,0,0,0-1.17-1.11,3.683,3.683,0,0,0-1.8-.42,3.972,3.972,0,0,0-2.19.63,4.358,4.358,0,0,0-1.55,1.8,6.321,6.321,0,0,0-.56,2.74h0Zm7.27,0a2.19,2.19,0,0,1-.53,1.55,1.745,1.745,0,0,1-1.31.55,1.723,1.723,0,0,1-1.31-.56,2.177,2.177,0,0,1-.52-1.54,2.144,2.144,0,0,1,.52-1.54,1.715,1.715,0,0,1,1.31-.55,1.754,1.754,0,0,1,1.31.56,2.139,2.139,0,0,1,.53,1.53h0Zm5.18-2.65v2.94h8.16v-2.94h-8.16Zm22.54,7.71-4.9-6.54,4.66-6.15h-4.06l-3.95,5.47v-5.47h-3.52v12.69h3.52v-5.57l3.98,5.57h4.27Zm3.08-11.04a2.13,2.13,0,0,0,1.48-.51,1.656,1.656,0,0,0,.57-1.29,1.7,1.7,0,0,0-.57-1.31,2.09,2.09,0,0,0-1.48-.52,2.133,2.133,0,0,0-1.51.52,1.723,1.723,0,0,0-.56,1.31,1.681,1.681,0,0,0,.56,1.29,2.174,2.174,0,0,0,1.51.51h0Zm-1.79.94v10.1h3.53v-10.1h-3.53Zm9.08,1.78v-1.78h-3.53v10.1h3.53v-4.41a1.915,1.915,0,0,1,.55-1.57,2.728,2.728,0,0,1,1.71-.45h0.99v-3.76a3.527,3.527,0,0,0-1.81.5,4.475,4.475,0,0,0-1.44,1.37h0Zm3.94,3.26a6.209,6.209,0,0,0,.57,2.74,4.237,4.237,0,0,0,1.54,1.81,4,4,0,0,0,2.19.63,3.782,3.782,0,0,0,1.79-.41,3.034,3.034,0,0,0,1.18-1.12v1.41h3.53v-10.1h-3.53v1.4a2.979,2.979,0,0,0-1.17-1.11,3.63,3.63,0,0,0-1.8-.42,4,4,0,0,0-2.19.63,4.267,4.267,0,0,0-1.54,1.8,6.179,6.179,0,0,0-.57,2.74h0Zm7.27,0a2.19,2.19,0,0,1-.53,1.55,1.824,1.824,0,0,1-2.62-.01,2.177,2.177,0,0,1-.52-1.54,2.144,2.144,0,0,1,.52-1.54,1.824,1.824,0,0,1,2.62.01,2.139,2.139,0,0,1,.53,1.53h0Zm17.1-4.81v-2.82h-8.12v12.69h8.12v-2.83h-4.59v-2.29h4.05v-2.68h-4.05v-2.07h4.59Zm8.35-.32a3.847,3.847,0,0,0-1.82.42,3.566,3.566,0,0,0-1.26,1.11v-1.44h-3.52v10.1h3.52v-5.42a1.941,1.941,0,0,1,.45-1.36,1.612,1.612,0,0,1,1.25-.5,1.547,1.547,0,0,1,1.2.5,1.941,1.941,0,0,1,.45,1.36v5.42h3.53v-5.89a4.536,4.536,0,0,0-1.03-3.14,3.506,3.506,0,0,0-2.77-1.16h0Zm9.47-.04a4,4,0,0,0-2.19.63,4.267,4.267,0,0,0-1.54,1.8,6.871,6.871,0,0,0,0,5.48,4.237,4.237,0,0,0,1.54,1.81,4,4,0,0,0,2.19.63,3.782,3.782,0,0,0,1.79-.41,3.034,3.034,0,0,0,1.18-1.12v1.3q0,2.01-1.8,2.01a2.087,2.087,0,0,1-1.12-.27,1.212,1.212,0,0,1-.54-0.75h-3.47a4.209,4.209,0,0,0,1.6,2.99,5.949,5.949,0,0,0,3.75,1.09,5.546,5.546,0,0,0,2.89-.68,4.173,4.173,0,0,0,1.68-1.83,5.9,5.9,0,0,0,.54-2.56v-9.99h-3.53v1.4a2.941,2.941,0,0,0-1.18-1.11,3.671,3.671,0,0,0-1.79-.42h0Zm2.97,5.17a2.19,2.19,0,0,1-.53,1.55,1.824,1.824,0,0,1-2.62-.01,2.177,2.177,0,0,1-.52-1.54,2.144,2.144,0,0,1,.52-1.54,1.824,1.824,0,0,1,2.62.01,2.139,2.139,0,0,1,.53,1.53h0Zm5.54-8.26v13.32h3.53v-13.32h-3.53Zm7.33,2.28a2.156,2.156,0,0,0,1.49-.51,1.681,1.681,0,0,0,.56-1.29,1.723,1.723,0,0,0-.56-1.31,2.409,2.409,0,0,0-2.99,0,1.7,1.7,0,0,0-.57,1.31,1.656,1.656,0,0,0,.57,1.29,2.165,2.165,0,0,0,1.5.51h0Zm-1.78.94v10.1h3.53v-10.1h-3.53Zm9.84,10.22a5.623,5.623,0,0,0,2.23-.4,3.467,3.467,0,0,0,1.46-1.11,2.638,2.638,0,0,0,.51-1.58,2.558,2.558,0,0,0-.55-1.74,3.2,3.2,0,0,0-1.28-.93,11.983,11.983,0,0,0-1.83-.52,6.712,6.712,0,0,1-1.33-.39,0.6,0.6,0,0,1-.41-0.55,0.524,0.524,0,0,1,.22-0.45,1.188,1.188,0,0,1,.66-0.16,1.427,1.427,0,0,1,.89.26,1.221,1.221,0,0,1,.42.75h3.19a3.826,3.826,0,0,0-1.31-2.56,4.7,4.7,0,0,0-3.12-.97,5.537,5.537,0,0,0-2.27.43,3.39,3.39,0,0,0-1.44,1.17,2.855,2.855,0,0,0-.48,1.62,2.468,2.468,0,0,0,.53,1.66,3.012,3.012,0,0,0,1.25.88,12.527,12.527,0,0,0,1.8.49,8.249,8.249,0,0,1,1.37.39,0.6,0.6,0,0,1,.41.56,0.55,0.55,0,0,1-.25.47,1.164,1.164,0,0,1-.68.18,1.561,1.561,0,0,1-.94-0.27,1.092,1.092,0,0,1-.45-0.76h-3.42a3.282,3.282,0,0,0,.69,1.81,4.083,4.083,0,0,0,1.7,1.26,6.019,6.019,0,0,0,2.43.46h0Zm12.57-10.31a3.942,3.942,0,0,0-1.85.42,3.515,3.515,0,0,0-1.27,1.11v-4.66h-3.52v13.32h3.52v-5.42a1.941,1.941,0,0,1,.45-1.36,1.612,1.612,0,0,1,1.25-.5,1.547,1.547,0,0,1,1.2.5,1.941,1.941,0,0,1,.45,1.36v5.42h3.53v-5.89a4.581,4.581,0,0,0-1.02-3.14,3.457,3.457,0,0,0-2.74-1.16h0Z" transform="translate(-1589.69 -8129)"/>
</svg>
