<svg id="header_header_logo.svg" data-name="header/header_logo.svg" xmlns="http://www.w3.org/2000/svg" width="192.905" height="39.906" viewBox="0 0 192.905 39.906">
  <defs>
    <style>
      .cls-1 {
        fill: #fff;
        fill-rule: evenodd;
      }
    </style>
  </defs>
  <path id="キッズオンライン英会話" class="cls-1" d="M952.224,66.151c0.036,0.168.12,0.6,0.24,1.2-1.091.168-2.087,0.312-2.531,0.36-0.371.035-.707,0.06-1.043,0.084l0.252,1.319c0.384-.1.671-0.156,1.031-0.216,0.42-.073,1.415-0.24,2.519-0.42,0.132,0.7.276,1.463,0.42,2.206-1.3.2-2.519,0.4-3.107,0.48-0.335.048-.839,0.108-1.139,0.12l0.276,1.283c0.264-.072.623-0.144,1.115-0.228,0.564-.108,1.775-0.312,3.082-0.527,0.2,1.115.384,2.014,0.432,2.314,0.072,0.36.108,0.743,0.168,1.176l1.379-.252c-0.12-.36-0.227-0.78-0.311-1.127-0.072-.324-0.24-1.224-0.456-2.3,1.115-.18,2.171-0.347,2.794-0.444,0.456-.072.888-0.156,1.164-0.18l-0.252-1.259c-0.276.083-.672,0.168-1.128,0.264-0.575.108-1.643,0.288-2.806,0.48-0.144-.743-0.288-1.511-0.42-2.195,1.08-.168,2.087-0.324,2.615-0.408,0.335-.048.743-0.108,0.959-0.132l-0.228-1.259c-0.239.072-.611,0.156-0.983,0.228-0.468.1-1.487,0.264-2.579,0.444-0.12-.623-0.2-1.08-0.228-1.224-0.06-.264-0.1-0.635-0.131-0.863l-1.344.216A6.839,6.839,0,0,1,952.224,66.151Zm13.355,1.511-1.127.371a21.975,21.975,0,0,1,.959,2.639l1.128-.408C966.383,69.737,965.8,68.166,965.579,67.662Zm4.378,0.767-1.319-.42a8.332,8.332,0,0,1-1.6,4.1,8.178,8.178,0,0,1-3.934,2.53l1,1.019a9.292,9.292,0,0,0,3.946-2.9,9.618,9.618,0,0,0,1.679-3.622C969.777,68.946,969.849,68.729,969.957,68.429Zm-7.172-.144-1.127.408a24.652,24.652,0,0,1,1.091,2.735l1.139-.42C963.66,70.349,963.061,68.838,962.785,68.286Zm18.021-3.478-0.78.324a13.8,13.8,0,0,1,.864,1.487l-0.468-.359a3.659,3.659,0,0,1-1.044.12h-4.449c-0.372,0-1.068-.037-1.308-0.072v1.355c0.192-.012.84-0.073,1.308-0.073h4.4a9.844,9.844,0,0,1-1.907,3.167,13.45,13.45,0,0,1-4.929,3.5l0.972,1.019a15.692,15.692,0,0,0,4.617-3.442,27.644,27.644,0,0,1,3.178,3.49l1.056-.923a31.915,31.915,0,0,0-3.43-3.514,16.755,16.755,0,0,0,1.967-3.418,3.579,3.579,0,0,1,.347-0.623l-0.12-.1,0.684-.3A16.84,16.84,0,0,0,980.806,64.808Zm1.427-.42-0.768.324a13.273,13.273,0,0,1,.972,1.655l0.779-.348A15.951,15.951,0,0,0,982.233,64.388Zm9.469,0.792h-1.367a9.228,9.228,0,0,1,.108,1.092c0.012,0.288.024,0.647,0.036,1.043h-4.186a9.423,9.423,0,0,1-1.2-.083V68.5q0.594-.036,1.223-0.036h3.658a14.622,14.622,0,0,1-5.409,4.413l0.864,0.983a16.617,16.617,0,0,0,5.1-4.293c0.024,1.463.036,2.962,0.036,3.862a0.4,0.4,0,0,1-.444.48,12.288,12.288,0,0,1-1.643-.132l0.1,1.235c0.636,0.035,1.331.072,1.991,0.072a1.028,1.028,0,0,0,1.211-1.079c-0.012-1.547-.06-3.766-0.1-5.541h1.751c0.3,0,.732.012,1.056,0.024V67.23a9.645,9.645,0,0,1-1.116.083h-1.715c0-.408-0.012-0.755-0.012-1.043A6.662,6.662,0,0,1,991.7,65.179Zm6.759,0.552-0.875.936a25.686,25.686,0,0,1,2.994,2.542l0.95-.971A25.008,25.008,0,0,0,998.461,65.731Zm-1.235,8.023,0.8,1.235a13.191,13.191,0,0,0,4.591-1.787,12.239,12.239,0,0,0,4.21-4.342l-0.73-1.307a11.407,11.407,0,0,1-4.16,4.521A12.44,12.44,0,0,1,997.226,73.754Zm13.174-8.131v1.235c0.34-.024.77-0.036,1.15-0.036h4.66c0.4,0,.88.012,1.18,0.036V65.623a11.4,11.4,0,0,1-1.17.06h-4.67A10.994,10.994,0,0,1,1010.4,65.623Zm7.94,3.3-0.85-.528a2.391,2.391,0,0,1-.77.108h-6.14c-0.35,0-.8-0.036-1.27-0.084v1.247c0.46-.036.98-0.048,1.27-0.048h6.11a5.649,5.649,0,0,1-1.34,2.4,8.036,8.036,0,0,1-4.19,2.159l0.93,1.079a8.877,8.877,0,0,0,4.3-2.555,8.632,8.632,0,0,0,1.76-3.358A1.975,1.975,0,0,1,1018.34,68.921Zm2.24,1.271,0.59,1.187a24.6,24.6,0,0,0,4.42-1.859v4.174a12.878,12.878,0,0,1-.07,1.415h1.49a8.9,8.9,0,0,1-.09-1.415V68.717a20.068,20.068,0,0,0,3.23-2.626l-1.01-.96a14.806,14.806,0,0,1-3.33,2.854A19.772,19.772,0,0,1,1020.58,70.193Zm13.88-4.462-0.87.936a26.224,26.224,0,0,1,2.99,2.542l0.95-.971A25.018,25.018,0,0,0,1034.46,65.731Zm-1.23,8.023,0.8,1.235a13.177,13.177,0,0,0,4.59-1.787,12.239,12.239,0,0,0,4.21-4.342l-0.73-1.307a11.407,11.407,0,0,1-4.16,4.521A12.437,12.437,0,0,1,1033.23,73.754Zm13.71-5.96h1.1V66.63h3.18v1.164h1.12V66.63h2.46v-1h-2.46v-1.02h-1.12v1.02h-3.18v-1.02h-1.1v1.02h-2.45v1h2.45v1.164Zm-0.31,3.454V69.461h2.4v1.1a5.23,5.23,0,0,1-.04.684h-2.36Zm6.09-1.787v1.787h-2.57a5.043,5.043,0,0,0,.04-0.671V69.461h2.53Zm2.24,2.818V71.248h-1.11V68.49h-3.66v-1.3h-1.16v1.3h-3.47v2.758h-1.2V72.28h4.31c-0.53.971-1.74,1.835-4.55,2.422a4.728,4.728,0,0,1,.7.936c2.9-.684,4.29-1.7,4.92-2.891a6.392,6.392,0,0,0,4.83,2.891,4.132,4.132,0,0,1,.69-1.032c-2.21-.276-3.76-1.02-4.64-2.327h4.34Zm4.11-4.042a11.719,11.719,0,0,0,2.56-2.542,11.906,11.906,0,0,0,2.7,2.542h-5.26Zm-0.23,1.031h5.62V68.334a14.572,14.572,0,0,0,2.12,1.247,5.079,5.079,0,0,1,.71-1.008,12.042,12.042,0,0,1-5.13-3.958H1061a12.126,12.126,0,0,1-4.9,4.126,4.054,4.054,0,0,1,.66.911,14.14,14.14,0,0,0,2.08-1.247v0.863Zm-2.06,2.291h2.98a20.188,20.188,0,0,1-1.12,2.507l-1.77.06,0.14,1.091c2.04-.084,5.09-0.216,7.94-0.36a7.212,7.212,0,0,1,.53.78L1066.5,75a15.323,15.323,0,0,0-2.79-3.082l-0.96.516a18.246,18.246,0,0,1,1.4,1.427c-1.47.06-2.95,0.12-4.29,0.168,0.44-.767.88-1.667,1.28-2.47h5.49V70.517h-9.85V71.56ZM1072.21,65h-3.43v0.876h3.43V65Zm-0.9,7.472V74.2h-1.66V72.471h1.66Zm0.96-.9h-3.58V75.6h0.96V75.086h2.62V71.572Zm-3.56-.792h3.51V69.917h-3.51V70.78Zm3.51-2.494h-3.51v0.863h3.51V68.286Zm-4.07-.779h4.47V66.618h-4.47v0.888Zm9.44,6.512h-3.16V71.932h3.16v2.087Zm1.64-4.917V68.046h-2.7V66.187a21.5,21.5,0,0,0,2.3-.5l-0.78-.912a27.787,27.787,0,0,1-5.11.851,3.3,3.3,0,0,1,.33.948c0.68-.048,1.4-0.132,2.12-0.216v1.692h-2.69V69.1h2.69v1.823h-2.03v4.689h1.07V75.026h3.16v0.527h1.1V70.924h-2.16V69.1h2.7Z" transform="translate(-948.875 -35.75)"/>
  <path id="Kira-Kira_English" data-name="Kira-Kira English" class="cls-1" d="M963.287,53.666L957.3,45.68l5.7-7.524h-4.972l-4.818,6.688V38.156H948.9v15.51h4.312v-6.8l4.862,6.8h5.214Zm3.762-13.485a2.6,2.6,0,0,0,1.815-.627,2.032,2.032,0,0,0,.693-1.573,2.091,2.091,0,0,0-.693-1.606,2.575,2.575,0,0,0-1.815-.638,2.605,2.605,0,0,0-1.837.638,2.091,2.091,0,0,0-.693,1.606,2.032,2.032,0,0,0,.693,1.573,2.634,2.634,0,0,0,1.837.627h0Zm-2.178,1.144V53.666h4.312V41.324h-4.312ZM975.959,43.5V41.324h-4.312V53.666h4.312V48.277a2.333,2.333,0,0,1,.682-1.914,3.3,3.3,0,0,1,2.09-.55h1.21v-4.6a4.27,4.27,0,0,0-2.222.616,5.6,5.6,0,0,0-1.76,1.671h0Zm4.818,3.983a7.658,7.658,0,0,0,.693,3.355,5.25,5.25,0,0,0,1.892,2.211,4.838,4.838,0,0,0,2.673.77,4.535,4.535,0,0,0,2.189-.505,3.653,3.653,0,0,0,1.441-1.364v1.716h4.312V41.324h-4.312V43.04a3.674,3.674,0,0,0-1.43-1.364,4.518,4.518,0,0,0-2.2-.505,4.846,4.846,0,0,0-2.673.77,5.268,5.268,0,0,0-1.892,2.2,7.589,7.589,0,0,0-.693,3.344h0Zm8.888,0a2.638,2.638,0,0,1-.649,1.892,2.118,2.118,0,0,1-1.595.682,2.088,2.088,0,0,1-1.606-.693,2.666,2.666,0,0,1-.638-1.881,2.618,2.618,0,0,1,.638-1.881,2.231,2.231,0,0,1,3.2.011,2.605,2.605,0,0,1,.649,1.87h0ZM996,44.25v3.586h9.969V44.25H996Zm27.539,9.416-5.98-7.986,5.7-7.524h-4.97l-4.82,6.688V38.156h-4.31v15.51h4.31v-6.8l4.86,6.8h5.21Zm3.77-13.485a2.6,2.6,0,0,0,1.81-.627,2.036,2.036,0,0,0,.69-1.573,2.1,2.1,0,0,0-.69-1.606,2.572,2.572,0,0,0-1.81-.638,2.6,2.6,0,0,0-1.84.638,2.1,2.1,0,0,0-.69,1.606,2.036,2.036,0,0,0,.69,1.573,2.626,2.626,0,0,0,1.84.627h0Zm-2.18,1.144V53.666h4.31V41.324h-4.31Zm11.09,2.177V41.324h-4.32V53.666h4.32V48.277a2.317,2.317,0,0,1,.68-1.914,3.286,3.286,0,0,1,2.09-.55h1.21v-4.6a4.271,4.271,0,0,0-2.22.616,5.56,5.56,0,0,0-1.76,1.671h0Zm4.81,3.983a7.687,7.687,0,0,0,.7,3.355,5.232,5.232,0,0,0,1.89,2.211,4.837,4.837,0,0,0,2.67.77,4.517,4.517,0,0,0,2.19-.505,3.684,3.684,0,0,0,1.44-1.364v1.716h4.31V41.324h-4.31V43.04a3.66,3.66,0,0,0-1.43-1.364,4.5,4.5,0,0,0-2.2-.505,4.846,4.846,0,0,0-2.67.77,5.25,5.25,0,0,0-1.89,2.2,7.617,7.617,0,0,0-.7,3.344h0Zm8.89,0a2.6,2.6,0,0,1-.65,1.892,2.205,2.205,0,0,1-3.2-.011,2.7,2.7,0,0,1-.64-1.881,2.645,2.645,0,0,1,.64-1.881,2.13,2.13,0,0,1,1.61-.671,2.1,2.1,0,0,1,1.59.682,2.571,2.571,0,0,1,.65,1.87h0Zm20.9-5.874V38.156h-9.92v15.51h9.92V50.212h-5.61V47.418h4.95V44.14h-4.95V41.61h5.61Zm10.21-.4a4.608,4.608,0,0,0-2.22.517,4.209,4.209,0,0,0-1.54,1.352V41.324h-4.31V53.666h4.31V47.044a2.362,2.362,0,0,1,.55-1.661,1.937,1.937,0,0,1,1.52-.6,1.9,1.9,0,0,1,1.47.6,2.362,2.362,0,0,1,.55,1.661v6.622h4.31V46.472a5.62,5.62,0,0,0-1.25-3.839,4.306,4.306,0,0,0-3.39-1.419h0Zm11.57-.044a4.846,4.846,0,0,0-2.67.77,5.25,5.25,0,0,0-1.89,2.2,8.363,8.363,0,0,0,0,6.7,5.232,5.232,0,0,0,1.89,2.211,4.837,4.837,0,0,0,2.67.77,4.517,4.517,0,0,0,2.19-.505,3.618,3.618,0,0,0,1.44-1.364v1.584c0,1.642-.73,2.464-2.2,2.464a2.515,2.515,0,0,1-1.36-.33,1.429,1.429,0,0,1-.66-0.924h-4.25a5.117,5.117,0,0,0,1.96,3.652,7.225,7.225,0,0,0,4.58,1.343,6.788,6.788,0,0,0,3.53-.836,5.108,5.108,0,0,0,2.05-2.233,7.252,7.252,0,0,0,.66-3.135V41.324h-4.31V43.04a3.622,3.622,0,0,0-1.44-1.364,4.516,4.516,0,0,0-2.19-.505h0Zm3.63,6.314a2.6,2.6,0,0,1-.65,1.892,2.205,2.205,0,0,1-3.2-.011,2.7,2.7,0,0,1-.64-1.881,2.645,2.645,0,0,1,.64-1.881,2.13,2.13,0,0,1,1.61-.671,2.1,2.1,0,0,1,1.59.682,2.571,2.571,0,0,1,.65,1.87h0Zm6.78-10.1V53.666h4.31V37.387h-4.31Zm8.95,2.794a2.608,2.608,0,0,0,1.82-.627,2.036,2.036,0,0,0,.69-1.573,2.1,2.1,0,0,0-.69-1.606,2.93,2.93,0,0,0-3.65,0,2.07,2.07,0,0,0-.7,1.606,2.012,2.012,0,0,0,.7,1.573,2.617,2.617,0,0,0,1.83.627h0Zm-2.18,1.144V53.666h4.32V41.324h-4.32Zm12.04,12.5a6.881,6.881,0,0,0,2.72-.495,4.185,4.185,0,0,0,1.78-1.353,3.179,3.179,0,0,0,.62-1.936,3.137,3.137,0,0,0-.67-2.123,3.875,3.875,0,0,0-1.56-1.133,14.361,14.361,0,0,0-2.23-.638,8.7,8.7,0,0,1-1.63-.473,0.73,0.73,0,0,1-.51-0.671,0.653,0.653,0,0,1,.28-0.55,1.354,1.354,0,0,1,.8-0.2,1.708,1.708,0,0,1,1.09.319,1.437,1.437,0,0,1,.52.913h3.89a4.628,4.628,0,0,0-1.6-3.124,5.689,5.689,0,0,0-3.81-1.187,6.62,6.62,0,0,0-2.78.528,4.027,4.027,0,0,0-1.75,1.419,3.486,3.486,0,0,0-.6,1.991,3,3,0,0,0,.65,2.024,3.839,3.839,0,0,0,1.53,1.078,14.6,14.6,0,0,0,2.2.595,10.036,10.036,0,0,1,1.67.483,0.723,0.723,0,0,1,.51.682,0.665,0.665,0,0,1-.31.572,1.386,1.386,0,0,1-.83.22,1.928,1.928,0,0,1-1.15-.33,1.321,1.321,0,0,1-.55-0.924h-4.18a3.981,3.981,0,0,0,.85,2.211,5.061,5.061,0,0,0,2.07,1.54,7.467,7.467,0,0,0,2.98.561h0Zm15.35-12.606a4.729,4.729,0,0,0-2.25.517,4.242,4.242,0,0,0-1.55,1.352v-5.7h-4.31V53.666h4.31V47.044a2.362,2.362,0,0,1,.55-1.661,1.951,1.951,0,0,1,1.52-.6,1.9,1.9,0,0,1,1.47.6,2.362,2.362,0,0,1,.55,1.661v6.622h4.31V46.472a5.616,5.616,0,0,0-1.24-3.839,4.243,4.243,0,0,0-3.36-1.419h0Z" transform="translate(-948.875 -35.75)"/>
</svg>
